<svg xmlns="http://www.w3.org/2000/svg" xmlns:xlink="http://www.w3.org/1999/xlink" viewBox="0 0 563.878 265.808"><defs><style>.cls-1{fill:#42526e;}.cls-2{fill:#dfe1e5;}.cls-3,.cls-9{fill:none;stroke-miterlimit:10;stroke-width:4.468px;}.cls-3{stroke:url(#linear-gradient);}.cls-4{fill:#d4b696;}.cls-5{fill:#a27f68;}.cls-6{fill:#403294;}.cls-7,.cls-8{opacity:0.25;}.cls-7{fill:url(#linear-gradient-2);}.cls-8{fill:url(#linear-gradient-3);}.cls-9{stroke:url(#linear-gradient-4);}.cls-10{fill:#b3bac5;}.cls-11{fill:#0052cc;}.cls-12{opacity:0.38;fill:url(#radial-gradient);}.cls-13{fill:url(#New_Gradient_Swatch_14);}.cls-14{fill:url(#linear-gradient-5);}.cls-15{fill:url(#linear-gradient-6);}.cls-16{fill:url(#linear-gradient-7);}.cls-17{fill:url(#linear-gradient-8);}.cls-18{opacity:0.5;}.cls-19{fill:#fff;}.cls-20{fill:url(#linear-gradient-9);}.cls-21{fill:url(#linear-gradient-10);}.cls-22{fill:url(#linear-gradient-11);}.cls-23{fill:#0065ff;}.cls-24{fill:url(#linear-gradient-12);}.cls-25{fill:#344563;}.cls-26{fill:url(#linear-gradient-13);}.cls-27{fill:#172b4d;}.cls-28{fill:url(#linear-gradient-14);}.cls-29{fill:url(#linear-gradient-15);}.cls-30{fill:url(#linear-gradient-16);}.cls-31{fill:url(#linear-gradient-17);}.cls-32{fill:#5243aa;}.cls-33{fill:#6554c0;}.cls-34{fill:url(#linear-gradient-18);}.cls-35{fill:url(#New_Gradient_Swatch_17);}.cls-36{clip-path:url(#clip-path);}.cls-37{clip-path:url(#clip-path-2);}</style><linearGradient id="linear-gradient" x1="3137.226" y1="180.682" x2="3278.35" y2="180.682" gradientTransform="matrix(-1, 0, 0, 1, 3278.35, 0)" gradientUnits="userSpaceOnUse"><stop offset="0" stop-color="#c1c7d0"/><stop offset="1" stop-color="#c1c7d0" stop-opacity="0"/></linearGradient><linearGradient id="linear-gradient-2" x1="3093.598" y1="263.919" x2="3301.02" y2="263.919" gradientTransform="matrix(1, 0, 0, -1, -3093.598, 527.838)" gradientUnits="userSpaceOnUse"><stop offset="0" stop-color="#091e42"/><stop offset="0.843" stop-color="#091e42" stop-opacity="0"/></linearGradient><linearGradient id="linear-gradient-3" x1="356.457" y1="263.919" x2="563.878" y2="263.919" gradientTransform="matrix(1, 0, 0, 1, 0, 0)" xlink:href="#linear-gradient-2"/><linearGradient id="linear-gradient-4" x1="422.754" y1="180.682" x2="563.878" y2="180.682" gradientUnits="userSpaceOnUse"><stop offset="0" stop-color="#0065ff"/><stop offset="0.078" stop-color="#0266ff" stop-opacity="0.974"/><stop offset="0.187" stop-color="#076aff" stop-opacity="0.902"/><stop offset="0.316" stop-color="#1070ff" stop-opacity="0.784"/><stop offset="0.458" stop-color="#1d79ff" stop-opacity="0.62"/><stop offset="0.613" stop-color="#2d84ff" stop-opacity="0.409"/><stop offset="0.774" stop-color="#4092ff" stop-opacity="0.156"/><stop offset="0.865" stop-color="#4c9aff" stop-opacity="0"/></linearGradient><radialGradient id="radial-gradient" cx="284.129" cy="98.513" r="96.518" gradientUnits="userSpaceOnUse"><stop offset="0" stop-color="#fff0b2"/><stop offset="0.156" stop-color="#ffe587" stop-opacity="0.761"/><stop offset="0.324" stop-color="#ffdb5f" stop-opacity="0.532"/><stop offset="0.487" stop-color="#ffd33d" stop-opacity="0.342"/><stop offset="0.64" stop-color="#ffcd22" stop-opacity="0.193"/><stop offset="0.78" stop-color="#ffc810" stop-opacity="0.087"/><stop offset="0.905" stop-color="#ffc504" stop-opacity="0.023"/><stop offset="1" stop-color="#ffc400" stop-opacity="0"/></radialGradient><linearGradient id="New_Gradient_Swatch_14" x1="345.204" y1="98.329" x2="422.754" y2="98.329" gradientTransform="translate(767.958 196.659) rotate(180)" gradientUnits="userSpaceOnUse"><stop offset="0" stop-color="#0052cc"/><stop offset="1" stop-color="#2684ff"/></linearGradient><linearGradient id="linear-gradient-5" x1="236.217" y1="119.534" x2="275.542" y2="119.534" gradientTransform="translate(511.758 239.068) rotate(180)" gradientUnits="userSpaceOnUse"><stop offset="0" stop-color="#7a869a"/><stop offset="1" stop-color="#dfe1e5"/></linearGradient><linearGradient id="linear-gradient-6" x1="236.217" y1="74.502" x2="275.542" y2="74.502" gradientTransform="translate(511.758 149.003) rotate(180)" xlink:href="#linear-gradient-5"/><linearGradient id="linear-gradient-7" x1="335.099" y1="146.084" x2="335.099" y2="50.942" gradientTransform="translate(670.197 197.026) rotate(180)" gradientUnits="userSpaceOnUse"><stop offset="0" stop-color="#2684ff"/><stop offset="1" stop-color="#b2d4ff"/></linearGradient><linearGradient id="linear-gradient-8" x1="3059.676" y1="98.329" x2="3137.226" y2="98.329" gradientTransform="matrix(-1, 0, 0, 1, 3278.35, 0)" gradientUnits="userSpaceOnUse"><stop offset="0" stop-color="#7a869a"/><stop offset="1" stop-color="#ebecf0"/></linearGradient><linearGradient id="linear-gradient-9" x1="387.84" y1="139.79" x2="380.77" y2="132.499" gradientTransform="matrix(1, 0, 0, -1, 0, 231.07)" gradientUnits="userSpaceOnUse"><stop offset="0.18" stop-color="#fff" stop-opacity="0.4"/><stop offset="1" stop-color="#fff"/></linearGradient><linearGradient id="linear-gradient-10" x1="379.847" y1="131.22" x2="371.672" y2="123.271" xlink:href="#linear-gradient-9"/><linearGradient id="linear-gradient-11" x1="3049.57" y1="146.084" x2="3049.57" y2="50.942" gradientTransform="matrix(-1, 0, 0, 1, 3278.35, 0)" gradientUnits="userSpaceOnUse"><stop offset="0" stop-color="#c1c7d0"/><stop offset="1" stop-color="#f4f5f7"/></linearGradient><linearGradient id="linear-gradient-12" x1="401.988" y1="216.131" x2="420.814" y2="222.983" gradientUnits="userSpaceOnUse"><stop offset="0" stop-color="#4c9aff"/><stop offset="0.813" stop-color="#0065ff"/><stop offset="0.871" stop-color="#0065ff"/></linearGradient><linearGradient id="linear-gradient-13" x1="376.098" y1="156.629" x2="433.065" y2="156.629" gradientUnits="userSpaceOnUse"><stop offset="0" stop-color="#b2d4ff"/><stop offset="1" stop-color="#2684ff"/></linearGradient><linearGradient id="linear-gradient-14" x1="288.768" y1="44.492" x2="288.768" gradientUnits="userSpaceOnUse"><stop offset="0" stop-color="#fff0b2"/><stop offset="1" stop-color="#ffc400"/></linearGradient><linearGradient id="linear-gradient-15" x1="261.368" y1="35.716" x2="271.722" y2="35.716" gradientUnits="userSpaceOnUse"><stop offset="0" stop-color="#ffc400"/><stop offset="1" stop-color="#fff0b2"/></linearGradient><linearGradient id="linear-gradient-16" x1="258.73" y1="180.349" x2="258.73" y2="140.507" xlink:href="#linear-gradient-15"/><linearGradient id="linear-gradient-17" x1="284.101" y1="171.104" x2="284.101" y2="148.941" xlink:href="#linear-gradient-15"/><linearGradient id="linear-gradient-18" x1="157.112" y1="221.485" x2="187.757" y2="221.485" gradientUnits="userSpaceOnUse"><stop offset="0.343" stop-color="#6554c0"/><stop offset="1" stop-color="#998dd9"/></linearGradient><linearGradient id="New_Gradient_Swatch_17" x1="162.315" y1="155.007" x2="212.888" y2="155.007" gradientUnits="userSpaceOnUse"><stop offset="0" stop-color="#5243aa"/><stop offset="1" stop-color="#8777d9"/></linearGradient><clipPath id="clip-path"><path id="_Clipping_Path_" data-name="&lt;Clipping Path&gt;" class="cls-1" d="M184.884,256.6a.04.04,0,0,0,.018.028c.11.052.422-.923.858-1.117.844-.375,2.229,2.135,4.693,3.756a10.255,10.255,0,0,0,3.081,1.352.739.739,0,0,1,.557.717v.7H179.142a12.878,12.878,0,0,1,1.009-5.435Z"/></clipPath><clipPath id="clip-path-2"><path id="_Clipping_Path_2" data-name="&lt;Clipping Path&gt;" class="cls-1" d="M147.9,256.6a.04.04,0,0,0,.018.028c.11.052.422-.923.858-1.117.844-.375,2.229,2.135,4.693,3.756a10.255,10.255,0,0,0,3.081,1.352.739.739,0,0,1,.557.717v.7H142.163a12.878,12.878,0,0,1,1.009-5.435Z"/></clipPath></defs><title>Jira Integration</title><g id="Layer_2" data-name="Layer 2"><g id="Layer_1-2" data-name="Layer 1"><polygon class="cls-2" points="149.183 257.024 143.001 257.024 143.647 253.873 149.829 253.873 149.183 257.024"/><path class="cls-2" d="M180.192,257.024H186.1q-.068-1.576-.136-3.151c-1.808-.69-3.977-1.084-5.755-.114q-.092.05-.183.105Z"/><path class="cls-3" d="M141.124,98.329h0a56.809,56.809,0,0,0-56.809,56.809v51.086a56.809,56.809,0,0,1-56.809,56.809H0"/><path class="cls-4" d="M419.286,123.893l-1.888-2.47-.742-5.824-.135-3.316h2.023l2.243,2.651a8.311,8.311,0,0,1,1.279,2.058h0a8.311,8.311,0,0,1,.688,3.311v2.376Z"/><path class="cls-5" d="M159.759,111.357l-1.573-6.266a.743.743,0,0,1,.7-.74c.3.268.64.506.868.4.195-.091.133-.352.344-.484.37-.231,1.059.251,1.268.4a3.022,3.022,0,0,1,.623.584l.949.342a1.048,1.048,0,0,1,.665.745l1.186.895c.54.084.759,2.258.779,2.335l-.407,2.791a.743.743,0,0,1-.969.89l-3.984-1.428A.743.743,0,0,1,159.759,111.357Z"/><path class="cls-5" d="M164.863,116.409c1.186-.417,4.054,3.41,1.045-3.955a5.987,5.987,0,0,0-2.381-3.582c-1.917-1.182-3.473.263-5.115-1.071-.888-.722-.912-1.527-2.047-2-.792-.327-1.85-.378-2.044,0-.221.434.844,1.076,2.317,2.946,1.46,1.853,1.14,2.144,2.448,3.526.544.575.928.872,2.1,2.106a8.726,8.726,0,0,0,.906.916C162.653,115.755,163.9,116.748,164.863,116.409Z"/><path class="cls-6" d="M163.967,174.549c-2.74-1.607-2.522-5.69-2.1-11.426,1.07-14.719,3.591-20.119,3.917-27.684.218-5.05-.487-12.364-5.017-21.452l6.257-.666a101.113,101.113,0,0,1,6.558,23.6,122.227,122.227,0,0,1,1.242,16.981c.033,10.663-1.422,15.164-.326,19a1.786,1.786,0,0,1-.029,1.38C173.43,176.195,167.04,176.351,163.967,174.549Z"/><rect class="cls-7" y="262.03" width="207.421" height="3.777" rx="1.889" ry="1.889" transform="translate(207.421 527.838) rotate(180)"/><rect class="cls-8" x="356.457" y="262.03" width="207.421" height="3.777" rx="1.889" ry="1.889"/><path class="cls-9" d="M422.754,98.329h0a56.809,56.809,0,0,1,56.809,56.809v51.086a56.809,56.809,0,0,0,56.809,56.809h27.505"/><rect class="cls-10" x="129.583" y="89.401" width="6.471" height="17.89" rx="3.236" ry="3.236"/><rect class="cls-10" x="136.055" y="89.401" width="6.471" height="17.89" rx="3.236" ry="3.236"/><rect class="cls-11" x="420.907" y="89.401" width="6.471" height="17.89" rx="3.236" ry="3.236"/><rect class="cls-11" x="427.379" y="89.401" width="6.471" height="17.89" rx="3.236" ry="3.236"/><circle class="cls-12" cx="284.129" cy="98.513" r="96.518"/><path class="cls-13" d="M387.25,56.284h35.5a0,0,0,0,1,0,0v84.091a0,0,0,0,1,0,0h-35.5A42.045,42.045,0,0,1,345.2,98.329v0A42.045,42.045,0,0,1,387.25,56.284Z" transform="translate(767.958 196.659) rotate(-180)"/><rect class="cls-14" x="236.217" y="116.314" width="39.325" height="6.441" transform="translate(511.758 239.068) rotate(-180)"/><rect class="cls-15" x="236.217" y="71.281" width="39.325" height="6.441" transform="translate(511.758 149.003) rotate(-180)"/><path class="cls-16" d="M330.95,50.942H345.2a0,0,0,0,1,0,0v95.141a0,0,0,0,1,0,0H330.95a5.958,5.958,0,0,1-5.958-5.958V56.9a5.958,5.958,0,0,1,5.958-5.958Z" transform="translate(670.197 197.026) rotate(-180)"/><path class="cls-17" d="M183.169,56.284h35.5a0,0,0,0,1,0,0v84.091a0,0,0,0,1,0,0h-35.5a42.045,42.045,0,0,1-42.045-42.045v0a42.045,42.045,0,0,1,42.045-42.045Z"/><g id="Layer_2-2" data-name="Layer 2" class="cls-18"><g id="White"><path class="cls-19" d="M395.221,82.728H378.6a7.5,7.5,0,0,0,7.5,7.5h3.062v2.956a7.5,7.5,0,0,0,7.5,7.5V84.17A1.442,1.442,0,0,0,395.221,82.728Z"/><path class="cls-20" d="M386.752,91.249h-16.62a7.5,7.5,0,0,0,7.5,7.5h3.062V101.7a7.5,7.5,0,0,0,7.5,7.5V92.691A1.442,1.442,0,0,0,386.752,91.249Z"/><path class="cls-21" d="M378.284,99.771h-16.62a7.5,7.5,0,0,0,7.5,7.5h3.071v2.956a7.5,7.5,0,0,0,7.488,7.5V101.213A1.442,1.442,0,0,0,378.284,99.771Z"/></g></g><path class="cls-22" d="M224.631,50.942h14.254a0,0,0,0,1,0,0v95.141a0,0,0,0,1,0,0H224.631a5.958,5.958,0,0,1-5.958-5.958V56.9a5.958,5.958,0,0,1,5.958-5.958Z"/><path class="cls-4" d="M378.341,146.067a7.8,7.8,0,0,0-1.654-2.178,7.884,7.884,0,0,0-3.379-1.824,4.191,4.191,0,0,0-1.478-.755l-2.072-.578a.719.719,0,0,1,.273-1.406l8.518.952a2.245,2.245,0,0,0,2.375-1.51l.217-.641a.837.837,0,0,1,1.628.221l.079,1.38a13.762,13.762,0,0,1-1.462,7Z"/><path class="cls-23" d="M427.422,185.477c1.1,2.082,2.167,4.29,3.184,6.625a100.623,100.623,0,0,1,7.484,27.162c1.08,2.815,2.122,5.771,3.1,8.867a158.432,158.432,0,0,1,5.7,24.758l-4.865,1.413c-1.678-4.56-4.35-11.734-7.787-20.58-4.334-11.154-6.5-16.732-6.589-16.934-6.073-14.081-9.373-17.977-7.781-23.324C420.417,191.631,421.966,188.419,427.422,185.477Z"/><path class="cls-24" d="M411.852,189.028,402.7,217.9l-8.2,35.254,4.784,1.281c2.932-7.11,5.792-14.639,8.507-22.58q2.073-6.063,3.863-11.919a38.4,38.4,0,0,1,6.533-9.349c4.635-4.852,8.536-6.264,11.234-11.613,2.032-4.029,1.361-6.323,1.178-6.868-.141-.421-.513-1.193-1.247-2.721-.755-1.572-1.4-2.848-1.827-3.7a52.368,52.368,0,0,1-15.679,3.343Z"/><path class="cls-25" d="M395.41,246.345a17.438,17.438,0,0,1-1.268,5.8,14.713,14.713,0,0,1-5.523,7.126,13.508,13.508,0,0,1-5.313,2.009l.136.776c2.41.046,7.5.092,9.915.138a1.367,1.367,0,0,1,1.677-.905,1.269,1.269,0,0,1,.585.951l2.456-.212q.4-1.536.838-3.092c1.2-4.3,2.51-8.427,3.891-12.366Z"/><path class="cls-25" d="M439.157,246.708a29.448,29.448,0,0,1,1.891,6.552c.143,1.923.261,3.5-.709,4.913a8.055,8.055,0,0,1-3.062,2.29,17.417,17.417,0,0,1-2.936,1.29l.158.7,6.592-.189,1.69-.057a1.052,1.052,0,0,1,.565-.715,1.065,1.065,0,0,1,.951.093,1.213,1.213,0,0,1,.5.571,14.864,14.864,0,0,0,3.569-.128q-.225-1.583-.462-3.181c-.089-.6-.247-1.66-.486-3.211-.562-3.65-1.289-8.176-1.462-9.255Z"/><path class="cls-26" d="M403.174,166.374a141.4,141.4,0,0,0,14.184-5.74c.33-.267.656-.547.656-.547.1-.085.2-.173.311-.271,2.635-2.33,8.594-8.5,8.568-17.967-.029-10.7-7.566-17.158-8.652-18.056l5.12-2.369a31.358,31.358,0,0,1,9.562,19.086c.926,9.264-2.936,16.423-4.677,19.65a39.434,39.434,0,0,1-5.093,7.311,33.56,33.56,0,0,0,4.836,18.991L410.7,191.835c1.47-3.2,1.209-5.217.684-6.473-1.176-2.814-4.31-3.33-5.475-6.734a7.7,7.7,0,0,1-.32-3.443,27.83,27.83,0,0,1-19.522-5.69c-11.613-9.3-9.943-24.5-9.825-25.426l6.221,1.473a25.7,25.7,0,0,0,1.015,9.613C386.4,163.477,395.719,168.6,403.174,166.374Z"/><path class="cls-4" d="M405.654,151.5a4.679,4.679,0,0,0,.729.163,4.969,4.969,0,0,1,1.994.687c1.05.733.364,2.153,1.268,4.208a6.775,6.775,0,0,1,.515,1.653,6.5,6.5,0,0,1,.091.824c.035.669.455,2.037,1.991,5.006l-.977-.268-2.892-1.108c-2.077-1.386-2.538-1.6-2.545-2.588-.008-1.182-.016-3.246-.084-3.325-.675-.649-1.541-.775-.875-1.571.379-.454.67-.78.771-.874C405.954,154.017,406.172,153.321,405.654,151.5Z"/><path class="cls-27" d="M408.3,152.3a28.724,28.724,0,0,0,1.594,11.893q.067.186.136.369a8.427,8.427,0,0,0,12.138,4.376q.23-.138.459-.292l.078-.053a5.478,5.478,0,0,0,.886-8.2,20.775,20.775,0,0,1-3.144-4.547c-2.068-4.076-1.777-6.949-4.528-8.553a10.194,10.194,0,0,0-5.67-.959,5.332,5.332,0,0,0-2.9.853,5.644,5.644,0,0,0-1.59,1.859,5.955,5.955,0,0,0-.7,2.436,9.151,9.151,0,0,1,3.241.813Z"/><path class="cls-28" d="M297.129,23.844,292.945.431A.523.523,0,0,0,291.927.38l-6,21.059-4.867-1.386a.523.523,0,0,0-.658.595l4.184,23.414a.523.523,0,0,0,1.018.051l6-21.059,4.867,1.386A.523.523,0,0,0,297.129,23.844Z"/><path class="cls-29" d="M270.357,33.943l-8.6-8.174a.23.23,0,0,0-.374.247l3.8,10.207-2.374.884a.23.23,0,0,0-.078.382l8.6,8.174a.23.23,0,0,0,.374-.247l-3.8-10.207,2.375-.884A.23.23,0,0,0,270.357,33.943Z"/><path class="cls-30" d="M251.325,156.229l-3.557,23.517a.523.523,0,0,0,.947.375L261.156,162.1l4.164,2.876a.523.523,0,0,0,.814-.352l3.557-23.517a.523.523,0,0,0-.947-.375L256.3,158.753l-4.164-2.876A.523.523,0,0,0,251.325,156.229Z"/><path class="cls-31" d="M279.922,160.477l5.519,10.5a.23.23,0,0,0,.433-.114l-.322-10.887,2.533-.075a.23.23,0,0,0,.2-.337l-5.519-10.5a.23.23,0,0,0-.433.114l.322,10.887-2.533.075A.23.23,0,0,0,279.922,160.477Z"/><path class="cls-32" d="M177.391,255.621"/><path class="cls-5" d="M209.348,141.642l.038-.1a12.537,12.537,0,0,1,2.826-4.442l.48-.487a.746.746,0,0,1,.892-.129h0a.746.746,0,0,1,.27,1.049l-.38.6a.883.883,0,0,0,.818,1.349l1.046-.085q.282-.023.566-.023h3.3v.118a3.281,3.281,0,0,1-.44,1.641h0l.2.827-7.328,2.08Z"/><path class="cls-33" d="M167.017,211.712c2.541-10.916,2.142-13.966,1.058-16.41a15.688,15.688,0,0,0-7.587-7.351,43.8,43.8,0,0,0-2.87,6.2c-1.83,4.928-2.168,8.582-2.864,13.2-.522,3.465-1.392,8.438-2.883,14.52a102.6,102.6,0,0,0-8.418,32.095l6.375-.006a88.435,88.435,0,0,0,13.406-28.538c.742-2.339,1.758-5.769,2.865-9.985C166.392,214.318,166.69,213.118,167.017,211.712Z"/><path class="cls-34" d="M175.715,191.059c2.937,6.584,5.171,12.193,6.76,16.379,3.608,9.505,4.227,12.559,4.47,13.868.973,5.235.878,9.182.69,15.511a138.888,138.888,0,0,1-1.667,17.67l-5.924.328a69.675,69.675,0,0,1-4.439-30.857,126.059,126.059,0,0,1-8.986-9.64c-2.43-2.9-4.579-5.724-6.477-8.418,0,0-4.358-7.268-2.623-11.389l.018-.043c.49-1.188.931-2.186,1.152-2.675.7-1.546,1.295-2.8,1.7-3.636a50.952,50.952,0,0,0,15.329,2.9Z"/><path class="cls-5" d="M171.164,147.906c-.469-.237-.978-.474-1.525-.7-.591-.248-1.157-.457-1.691-.634A7.263,7.263,0,0,0,163.089,143a6.155,6.155,0,0,0-3.9.536c-2.84,1.486-3.678,5.1-3.414,7.612a6.338,6.338,0,0,0,1.522,3.912c1.77,1.844,4.126,1.271,4.818,2.866.567,1.307-.8,2.273-.249,3.2,1,1.694,7.255,1.384,8.349-1.566a3.627,3.627,0,0,0-.317-2.885l2.768-3.773a9.654,9.654,0,0,0-2.461-3.372,5.383,5.383,0,0,0,.962-1.622Z"/><path class="cls-1" d="M163.072,151.443c-.148-1.058.312-1.385-.06-2.041-.424-.749-1.2-.632-1.727-1.53a1.7,1.7,0,0,1-.312-1.287c.409-1.274,3.6-.861,3.973-2.093a1.233,1.233,0,0,0-.2-.958,6.041,6.041,0,0,0-2.594-1.114,7.014,7.014,0,0,0-6.91,3.5,7.207,7.207,0,0,0,.628,8.107,6.606,6.606,0,0,0,3.656,2.38,2.76,2.76,0,0,1,1.943.75c.386.5.316,1.079.645,1.172.083.023.376.068,1.033-.765.7-.892,1.549-1.964,1.378-3.248C164.346,152.993,163.287,152.971,163.072,151.443Z"/><path class="cls-32" d="M170.909,160.021c6.714,2.736,9.789,10.52,9.791,16.308a25.1,25.1,0,0,1-1.931,8.728,22.879,22.879,0,0,1-3.64,7.126c-4.256,5.369-16.407,5.051-18.251,1.242a3.011,3.011,0,0,1-.2-1.826c2.276-13.752-.745-29.052,6.339-32.261C165.987,157.992,169.2,159.324,170.909,160.021Z"/><path class="cls-35" d="M212.458,143.923l.43.472a72.71,72.71,0,0,1-47.246,25.112c-1.723-1.707-3.825-4.331-3.222-6.756.5-2.015,2.765-3.476,13-6.169,4.077-1.073,9.558-2.378,16.159-3.552l17.768-12.521.016.017Z"/><path class="cls-4" d="M415.645,116.76l3.9,3.908,1.359-2.353-4.358-2.7a.733.733,0,0,0-.939.142h0A.733.733,0,0,0,415.645,116.76Z"/><path id="_Clipping_Path_3" data-name="&lt;Clipping Path&gt;" class="cls-1" d="M184.884,256.6a.04.04,0,0,0,.018.028c.11.052.422-.923.858-1.117.844-.375,2.229,2.135,4.693,3.756a10.255,10.255,0,0,0,3.081,1.352.739.739,0,0,1,.557.717v.7H179.142a12.878,12.878,0,0,1,1.009-5.435Z"/><g class="cls-36"><path class="cls-10" d="M179.215,259.313a3.009,3.009,0,0,1,3.006,2.953h-3.085v-2.945C179.163,259.32,179.188,259.313,179.215,259.313Z"/></g><path id="_Clipping_Path_4" data-name="&lt;Clipping Path&gt;" class="cls-1" d="M147.9,256.6a.04.04,0,0,0,.018.028c.11.052.422-.923.858-1.117.844-.375,2.229,2.135,4.693,3.756a10.255,10.255,0,0,0,3.081,1.352.739.739,0,0,1,.557.717v.7H142.163a12.878,12.878,0,0,1,1.009-5.435Z"/><g class="cls-37"><path class="cls-10" d="M142.236,259.313a3.009,3.009,0,0,1,3.006,2.953h-3.085v-2.945C142.183,259.32,142.209,259.313,142.236,259.313Z"/></g></g></g></svg>