<svg xmlns="http://www.w3.org/2000/svg" xmlns:xlink="http://www.w3.org/1999/xlink" viewBox="0 0 600 600"><style><![CDATA[.y{stroke-miterlimit:10}.z{enable-background:new }.AA{fill:none}.AB{opacity:.6}.AC{fill:#2684ff}.AD{stroke-width:2.726}.AE{fill:#4c9aff}.AF{fill:#ce9e79}.AG{fill:#0065ff}.AH{fill:#79e2f2}.AI{stroke-width:4.093}.AJ{stroke-linecap:round}.AK{fill:#253858}.AL{stroke-width:2.174}.AM{stroke-width:.869}]]></style><path d="M124.3 442.1L25.2 241.3c-.4-.7-.2-1.6.5-2.2l1.5-1.2c.3-.3.7-.4 1.1-.4H372c.3 0 .6.2.7.4L474.6 442" class="AC"/><path d="M129.8 442.1l-.7-1.3L27.6 237.6s.2-.1.3-.1h349.9L480 442.1" class="AG"/><linearGradient id="A" gradientUnits="userSpaceOnUse" x1="259.242" y1="442.076" x2="259.242" y2="217.945"><stop offset="0" stop-color="#deebff"/><stop offset=".638" stop-color="#ebf1fa"/><stop offset="1" stop-color="#f4f5f7"/></linearGradient><path d="M129.8 442.1L38.5 217.9h350.2L480 442.1" opacity=".84" fill="url(#A)" enable-background="new "/><linearGradient id="B" gradientUnits="userSpaceOnUse" x1="271.196" y1="442.076" x2="271.196" y2="196.209"><stop offset="0" stop-color="#deebff"/><stop offset=".638" stop-color="#ebf1fa"/><stop offset="1" stop-color="#f4f5f7"/></linearGradient><path d="M129.8 442.1L62.4 196.2h350.2L480 442.1" fill="url(#B)" enable-background="new " class="AB"/><linearGradient id="C" gradientUnits="userSpaceOnUse" x1="283.151" y1="442.076" x2="283.151" y2="165.753"><stop offset="0" stop-color="#deebff"/><stop offset=".638" stop-color="#ebf1fa"/><stop offset="1" stop-color="#f4f5f7"/></linearGradient><path d="M446.2 217.9L480 442.1H129.8L86.3 165.8h305.5z" fill="url(#C)"/><linearGradient id="D" gradientUnits="userSpaceOnUse" x1="216.72" y1="466.446" x2="566.94" y2="466.446"><stop offset="0" stop-color="#deebff"/><stop offset=".638" stop-color="#ebf1fa"/><stop offset="1" stop-color="#f4f5f7"/></linearGradient><path d="M216.7 442.1h350.2v48.7H216.7z" fill="url(#D)"/><path d="M125.5 494.1a3.8 3.8 0 0 1-3.8-3.8V447c0-1.8 1.5-3.2 3.2-3.2h4.9v50.4h-4.3z" fill="#0052cc"/><path d="M130.6 447v43.8h-4c-1.1 0-2-.9-2-2v-40.3a1.54 1.54 0 0 1 1.5-1.5h1.5m5.5-4.9h-8.3a4.91 4.91 0 0 0-4.9 4.9v43.4c0 3 2.4 5.4 5.4 5.4h8.1l-.3-53.7z" class="AC"/><linearGradient id="E" gradientUnits="userSpaceOnUse" x1="127.566" y1="466.446" x2="216.665" y2="466.446"><stop offset="0" stop-color="#deebff"/><stop offset=".366" stop-color="#d1e4ff"/><stop offset="1" stop-color="#b2d4ff"/></linearGradient><path d="M216.7 442.1h-86.9c1.1 1.9.6 4.9-2.2 4.9v43.8h89.1v-48.7z" fill="url(#E)"/><path d="M221.5 490.8h-91.7l-4.4 5h96.1z" class="AC"/><linearGradient id="F" gradientUnits="userSpaceOnUse" x1="391.83" y1="202.299" x2="446.186" y2="202.299"><stop offset="0" stop-color="#f4f5f7"/><stop offset=".506" stop-color="#ecedf0"/><stop offset="1" stop-color="#dfe1e5"/></linearGradient><path d="M391.8 165.8l11.2 73 43.2-20.9z" fill="url(#F)"/><path d="M221.5,490.8h350c0.9,0,1.6,0.7,1.6,1.6v1.7c0,0.9-0.7,1.6-1.6,1.6h-350V490.8z" class="AE"/><g stroke="#b2d4ff" class="y AA AB AL"><path d="M118.1 165.8l43.5 276.3M150 165.8l43.5 276.3m-11.7-276.3l43.5 276.3m-11.6-276.3l43.4 276.3m-11.6-276.3L289 442.1m-11.7-276.3l43.5 276.3m-11.6-276.3l43.4 276.3M341 165.8l43.5 276.3m-11.7-276.3l43.5 276.3m-6.8-245.9l38.7 245.9"/><path d="M91.1 196.5l318.4-.3M96 227.2h350.2m-345.4 30.7H451m-345.4 30.7h350.2m-345.3 30.7h350.2M115.3 350h350.2m-345.4 30.7h350.2m-345.4 30.7h350.3"/></g><linearGradient id="G" gradientUnits="userSpaceOnUse" x1="387.208" y1="191.849" x2="446.186" y2="191.849"><stop offset=".035" stop-color="#fff"/><stop offset=".397" stop-color="#f7f7f8"/><stop offset=".96" stop-color="#e1e3e6"/><stop offset="1" stop-color="#dfe1e5"/></linearGradient><path d="M387.2 209.8l59 8.1-54.4-52.1z" fill="url(#G)"/><defs><path id="H" d="M387.2 209.8l59 8.1-54.4-52.1z"/><path id="I" d="M184.4 255.2l-5.2-67.1c-14.3.1-59.2-.2-76.2 0 3.1 39.5 4.6 42.5 3.3 67.5 19 .4 60.4-.8 78.1-.4z"/></defs><clipPath id="J"><use xlink:href="#H"/></clipPath><g clip-path="url(#J)" stroke="#b2d4ff" class="y AA AL"><path d="M417.8 186.4l-5.1 42.9"/><path d="M439 200.5l-92.7-13.4"/></g><g opacity=".7"><path d="M308.6 307c-10.8-45.2-53.8-80.7-96.4-80.7-39.8 0-67.5 31.1-64.7 72.1l-13.5-1.3c-2.7-.3-3.9 3-1.8 5.2l37.2 38.8c1.3 1.4 3.3 1.6 3.5.4l30.9-32.5c2.6-1.8.9-5.4-1.9-5.6l-14.6-1.4c-1.5-20.8 12.4-36.7 32.7-36.7 21.9 0 43.8 18.5 48.9 41.6 5.2 23.6-9 43.2-31.8 43.2h1.6l8.9 43.8c45.1-.8 72.2-40.3 61-86.9z" class="AC"/><linearGradient id="K" gradientUnits="userSpaceOnUse" x1="132.623" y1="372.136" x2="247.931" y2="372.136"><stop offset="0" stop-color="#99c1ff" stop-opacity="0"/><stop offset=".007" stop-color="#95bfff" stop-opacity=".036"/><stop offset=".048" stop-color="#80b4ff" stop-opacity=".216"/><stop offset=".093" stop-color="#6daaff" stop-opacity=".385"/><stop offset=".142" stop-color="#5ca0ff" stop-opacity=".533"/><stop offset=".195" stop-color="#4d99ff" stop-opacity=".66"/><stop offset=".254" stop-color="#4192ff" stop-opacity=".767"/><stop offset=".32" stop-color="#378dff" stop-opacity=".853"/><stop offset=".398" stop-color="#2f89ff" stop-opacity=".92"/><stop offset=".493" stop-color="#2a86ff" stop-opacity=".966"/><stop offset=".628" stop-color="#2784ff" stop-opacity=".993"/><stop offset="1" stop-color="#2684ff"/></linearGradient><path d="M132.6 350.2l6.9 43.9h106.7l-8.9-43.9z" fill="url(#K)"/><path d="M237.3 350.2l8.9 43.8h1.6l-8.9-43.8h-1.6z" class="AC"/></g><path d="M246.2 394.1h168l5.2 18.8c1 3.6 5.4 5.3 7 2.8l26-41.1c.9-1.5.2-3.9-1.6-5.4l-48.3-39.5c-2.8-2.3-6.2-.7-5.2 2.6l4.9 17.8h-94.5c-8.1 25.5-30.2 43.2-59.9 43.8" opacity=".574" enable-background="new " class="AH"/><g class="AA y AM"><g stroke="#2684ff"><path d="M139.5 394.1h2.6"/><path d="M147.2 394.1h100.6c44.9-.9 71.9-40.4 60.8-87-10.8-45.2-53.8-80.7-96.4-80.7-38.1 0-65.1 28.5-64.9 66.9" stroke-dasharray="5.1733,5.1733"/><path d="M147.4 295.8l.1 2.6-2.6-.2"/><path d="M139.8 297.7l-5.7-.5c-2.7-.3-3.9 3-1.8 5.2l37.2 38.8c1.3 1.4 3.3 1.6 3.5.4l30.9-32.5c2.6-1.8.9-5.4-1.9-5.6l-9.4-.9" stroke-dasharray="5.217,5.217"/><path d="M190.1 302.3l-2.6-.2c-.1-.9-.1-1.7-.1-2.6"/><path d="M187.6 294.3c2-16.8 14.8-28.9 32.6-28.9 21.9 0 43.8 18.5 48.9 41.6 5.2 23.6-9 43.2-31.8 43.2h-99.5" stroke-dasharray="5.2088,5.2088"/><path d="M135.2 350.2h-2.6"/></g><path d="M256.7 394.1h157.6l5.2 18.8c1 3.6 5.4 5.3 7 2.8l26-41.1c.9-1.5.2-3.9-1.6-5.4l-48.3-39.5c-2.8-2.3-6.2-.7-5.2 2.6l4.9 17.8h-94.5" opacity=".82" stroke="#00c7e5" stroke-dasharray="5.2111,5.2111" enable-background="new "/></g><linearGradient id="L" gradientUnits="userSpaceOnUse" x1="143.728" y1="188.031" x2="143.728" y2="255.649"><stop offset="0" stop-color="#0747a6"/><stop offset="1" stop-color="#0747a6"/></linearGradient><use xlink:href="#I" opacity=".25" fill="url(#L)" enable-background="new "/><linearGradient id="M" gradientUnits="userSpaceOnUse" x1="146.988" y1="188.031" x2="146.988" y2="263.257"><stop offset="0" stop-color="#ffe380"/><stop offset="1" stop-color="#ffc400"/></linearGradient><path d="M191 262.9c-3.2-39.2-8.7-36.4-11.7-74.7-14.3.1-59.2-.2-76.2 0 2.3 37.2 7.5 37.1 9.9 75.1 18.8.3 60.2-.9 78-.4z" fill="url(#M)"/><g class="AB"><linearGradient id="N" gradientUnits="userSpaceOnUse" x1="110.423" y1="205.53" x2="175.395" y2="205.53"><stop offset="0" stop-color="#ff8b00"/><stop offset=".166" stop-color="#ff8b00" stop-opacity=".988"/><stop offset=".297" stop-color="#ff8b00" stop-opacity=".95"/><stop offset=".416" stop-color="#ff8b00" stop-opacity=".883"/><stop offset=".528" stop-color="#ff8b00" stop-opacity=".79"/><stop offset=".635" stop-color="#ff8b00" stop-opacity=".672"/><stop offset=".738" stop-color="#ff8b00" stop-opacity=".525"/><stop offset=".838" stop-color="#ff8b00" stop-opacity=".35"/><stop offset=".933" stop-color="#ff8b00" stop-opacity=".156"/><stop offset="1" stop-color="#ff8b00" stop-opacity="0"/></linearGradient><path d="M110.4 205.5h65" stroke="url(#N)" enable-background="new " class="y AA AB AD"/><linearGradient id="O" gradientUnits="userSpaceOnUse" x1="110.896" y1="212.995" x2="175.98" y2="212.995"><stop offset="0" stop-color="#ff8b00"/><stop offset=".166" stop-color="#ff8b00" stop-opacity=".988"/><stop offset=".297" stop-color="#ff8b00" stop-opacity=".95"/><stop offset=".416" stop-color="#ff8b00" stop-opacity=".883"/><stop offset=".528" stop-color="#ff8b00" stop-opacity=".79"/><stop offset=".635" stop-color="#ff8b00" stop-opacity=".672"/><stop offset=".738" stop-color="#ff8b00" stop-opacity=".525"/><stop offset=".838" stop-color="#ff8b00" stop-opacity=".35"/><stop offset=".933" stop-color="#ff8b00" stop-opacity=".156"/><stop offset="1" stop-color="#ff8b00" stop-opacity="0"/></linearGradient><path d="M110.9 213H176" stroke="url(#O)" enable-background="new " class="y AA AB AD"/><linearGradient id="P" gradientUnits="userSpaceOnUse" x1="111.37" y1="220.484" x2="160.903" y2="220.484"><stop offset="0" stop-color="#ff8b00"/><stop offset=".166" stop-color="#ff8b00" stop-opacity=".988"/><stop offset=".297" stop-color="#ff8b00" stop-opacity=".95"/><stop offset=".416" stop-color="#ff8b00" stop-opacity=".883"/><stop offset=".528" stop-color="#ff8b00" stop-opacity=".79"/><stop offset=".635" stop-color="#ff8b00" stop-opacity=".672"/><stop offset=".738" stop-color="#ff8b00" stop-opacity=".525"/><stop offset=".838" stop-color="#ff8b00" stop-opacity=".35"/><stop offset=".933" stop-color="#ff8b00" stop-opacity=".156"/><stop offset="1" stop-color="#ff8b00" stop-opacity="0"/></linearGradient><path d="M111.4 220.5h49.5" stroke="url(#P)" enable-background="new " class="y AA AB AD"/></g><linearGradient id="Q" gradientUnits="userSpaceOnUse" x1="143.715" y1="187.989" x2="143.715" y2="255.607"><stop offset="0" stop-color="#0747a6"/><stop offset="1" stop-color="#0747a6"/></linearGradient><use xlink:href="#I" x="257.1" y="51.6" opacity=".25" fill="url(#Q)" enable-background="new "/><linearGradient id="R" gradientUnits="userSpaceOnUse" x1="404.075" y1="239.589" x2="404.075" y2="314.815"><stop offset="0" stop-color="#ffe380"/><stop offset="1" stop-color="#ffc400"/></linearGradient><path d="M448 314.4c-3.2-39.2-8.7-36.4-11.7-74.7-14.3.1-59.2-.2-76.2 0 2.3 37.2 7.5 37.1 9.9 75.1 18.9.4 60.3-.8 78-.4z" fill="url(#R)"/><g class="AB"><linearGradient id="S" gradientUnits="userSpaceOnUse" x1="367.511" y1="257.088" x2="432.483" y2="257.088"><stop offset="0" stop-color="#ff8b00"/><stop offset=".166" stop-color="#ff8b00" stop-opacity=".988"/><stop offset=".297" stop-color="#ff8b00" stop-opacity=".95"/><stop offset=".416" stop-color="#ff8b00" stop-opacity=".883"/><stop offset=".528" stop-color="#ff8b00" stop-opacity=".79"/><stop offset=".635" stop-color="#ff8b00" stop-opacity=".672"/><stop offset=".738" stop-color="#ff8b00" stop-opacity=".525"/><stop offset=".838" stop-color="#ff8b00" stop-opacity=".35"/><stop offset=".933" stop-color="#ff8b00" stop-opacity=".156"/><stop offset="1" stop-color="#ff8b00" stop-opacity="0"/></linearGradient><path d="M367.5 257.1h65" stroke="url(#S)" enable-background="new " class="y AA AB AD"/><linearGradient id="T" gradientUnits="userSpaceOnUse" x1="367.983" y1="264.553" x2="433.068" y2="264.553"><stop offset="0" stop-color="#ff8b00"/><stop offset=".166" stop-color="#ff8b00" stop-opacity=".988"/><stop offset=".297" stop-color="#ff8b00" stop-opacity=".95"/><stop offset=".416" stop-color="#ff8b00" stop-opacity=".883"/><stop offset=".528" stop-color="#ff8b00" stop-opacity=".79"/><stop offset=".635" stop-color="#ff8b00" stop-opacity=".672"/><stop offset=".738" stop-color="#ff8b00" stop-opacity=".525"/><stop offset=".838" stop-color="#ff8b00" stop-opacity=".35"/><stop offset=".933" stop-color="#ff8b00" stop-opacity=".156"/><stop offset="1" stop-color="#ff8b00" stop-opacity="0"/></linearGradient><path d="M368 264.5l65.1.1" stroke="url(#T)" enable-background="new " class="y AA AB AD"/><linearGradient id="U" gradientUnits="userSpaceOnUse" x1="368.458" y1="272.042" x2="417.99" y2="272.042"><stop offset="0" stop-color="#ff8b00"/><stop offset=".166" stop-color="#ff8b00" stop-opacity=".988"/><stop offset=".297" stop-color="#ff8b00" stop-opacity=".95"/><stop offset=".416" stop-color="#ff8b00" stop-opacity=".883"/><stop offset=".528" stop-color="#ff8b00" stop-opacity=".79"/><stop offset=".635" stop-color="#ff8b00" stop-opacity=".672"/><stop offset=".738" stop-color="#ff8b00" stop-opacity=".525"/><stop offset=".838" stop-color="#ff8b00" stop-opacity=".35"/><stop offset=".933" stop-color="#ff8b00" stop-opacity=".156"/><stop offset="1" stop-color="#ff8b00" stop-opacity="0"/></linearGradient><path d="M368.5 272H418" stroke="url(#U)" enable-background="new " class="y AA AB AD"/></g><g class="AA y AI AJ"><g stroke="#2684ff"><path d="M297.1 444.9l37.5-98.8m-75.8 98.8l37.5-98.8"/><path d="M290.6 361h38.3m-44.8 17.3h38.3m-44.8 17.2h38.3m-44.8 17.2h38.3m-44.8 17.2h38.3"/></g><path d="M346.9 444.9l-37.5-98.8m75.8 98.8l-37.4-98.8" stroke="#4c9aff"/></g><path d="M350.2 347.8h-57a4.48 4.48 0 1 1 0-9h57a4.48 4.48 0 0 1 4.5 4.5 4.55 4.55 0 0 1-4.5 4.5z" fill="#b2d4ff"/><path d="M304.2 347.8h-11.1a4.48 4.48 0 1 1 0-9h11.1a4.48 4.48 0 0 1 4.5 4.5 4.55 4.55 0 0 1-4.5 4.5z" class="AE"/><path d="M353.4 361h-38.3m44.8 17.3h-38.3m44.8 17.2h-38.3m44.8 17.2h-38.3m44.8 17.2h-38.3" stroke="#4c9aff" class="y AA AI AJ"/><path d="M300.9 240.6l-17.6 3.5-20.3 1.8v3.1c13.6 1.2 27.3.7 40.8-1.4-1-2.3-1.9-4.7-2.9-7z" fill="#00c7e5"/><path d="M209.7 289.2l-1.3 1-4.8-6.4 1.8-1.3c3-2.3 5.1-5.5 6-9.1l.1-.4c.9-3.7 3-6.9 6-9.1l115.7-86.6c5.4-4.1 13.1-3 17.2 2.5 4.1 5.4 3 13.1-2.5 17.2l-115.3 86a15.81 15.81 0 0 1-11.5 3.1c-4-.5-8.1.6-11.4 3.1z" class="AE"/><path d="M276 250.5c2.1-6.3 4.3-14.8 6.1-21.4l4.8-17.4 9-6.7c-2.6 7.2-5.5 18.2-7.5 25.8l-3.6 13.2-8.8 6.5zm53.2-70.5c-10.5 34.1-16.2 40.8-21.7 40-4.9-.7-6.2-7.3-7.6-14.3-.2-.9-.4-2.1-.7-3.3l5.7-4.2c.5 1.9 1 4 1.4 6.3.5 2.5 1.4 6.9 2.3 8.7 1.5-1.4 5.1-6.7 11.7-26.5l8.9-6.7zm-58.5 43.9c.6 15.3 1.5 24 2.3 29l-5.7 4.3c-1.2-5.2-2.2-14-2.9-28.5l6.3-4.8zm-70 68.4l-1-3.4c-.1-.5 0-1 .4-1.3l4-3 3.4 4.6-5 3.8c-.5.4-1.3.3-1.7-.2 0-.3 0-.4-.1-.5z" class="AG"/><path d="M338.1 328.9c1.8.6 3.5 1.7 4.7 3.2-.1.4-.3.8-.5 1.3-.9 2-2.3 3.8-3.9 5.3h-5.1v-.4c.2-1.3 2.5-1.8 2.7-1.8.8-1.7.8-3.8 0-5.5l2.1-2.1z" fill="#344563"/><circle cx="318.2" cy="247.5" r="10.1" class="AK"/><path d="M315.2 262.2c-3.4-2.8-11.3-1.5-13.6 2.5-2.5 4.2 1.1 11.3 5.4 19.5 1.2 2.3 3 5.6 11.1 18.6l8.3 13.2c4.1 6.6 7.2 12.1 9.2 15.7l4.4-2.1c-2.1-5-3.7-9.1-4.7-11.9-2.2-5.9-3-9.1-5.4-14.1-1.5-3.3-3-5.9-3.9-7.6l-2.7-8.2-4.8-15.9c.2-1.8-.1-3.6-.6-5.3s-1.4-3.2-2.7-4.4z" fill="#00b8d9"/><path d="M306.8 332.5c.2.7.4 1.5.5 2.3.2 1 .3 2 .4 3.1 0 .5-.3.9-.8.9h-10.6c-.1-.5.1-1 .3-1.4.4-.5 1.1-.5 1.8-.6a7.48 7.48 0 0 0 3.9-2.1c.6-.6 1.1-1.4 1.5-2.3l3 .1z" fill="#344563"/><path d="M308.9 257.9c-2.3-.6-4.8-.2-6.9 1-2.6 1.8-3.8 5.2-3.6 18.2.1 6.5.5 13.5 1.6 24l1.9 16.8c.6 6.5.9 11.9 1 15.4l5.2.3c1.2-6.5 1.9-12 2.4-16.3.5-3.4.7-6.8.4-10.2-.4-2.7-.9-5.4-1.7-8.1-.3-.8-.5-1.6-.8-2.3.3-1.8.9-4.5 1.6-7.8a203.93 203.93 0 0 1 3.1-12.4c2.2-7.7 3.2-8.5 2.6-11-.6-3.1-3-6.6-6.8-7.6z" fill="#00c7e5"/><path d="M297.7 230.1c-.7 1.8-.8 3.8-.2 5.7.5 1.6 1.6 2.9 3 3.8.6.3 1.2.6 1.9.6.6.1 1.3.1 1.9-.1 2.1-1.1-.3-10-3.3-12.2-.4-.3-.9-.5-1.4-.5-1 .3-1.6 1.8-1.9 2.7z" class="AK"/><path d="M318.2 267.4c-6.5 5.2-15.8 5-22.1-.3.7-1 1.2-2.1 1.6-3.3 1.1-3.1 1.1-6.5.2-9.7-.7-2.2-1.4-2.4-1.4-4.1 0-.8.1-1.1 1.1-4.7.7-2.7.8-2.8 1-3.2.2-.3 1.4-1.7 5.6-2a23.2 23.2 0 0 1 11.5 2.7c-.2 2.6-.6 5.1-1.1 7.6-.8 4-1.5 5.7-.7 8.1.4 1.1.7 1.2 2 3.6l2.3 5.3z" class="AH"/><g fill="#cea28b"><path d="M297.9 233.4l.4.4c.2.1.3.2.5.4v1.1c0 .7.1 1.4.3 2.1.7.2 1.4.3 2.2.4 1.3.2 2.6.1 3.9-.2.9-.2 1.7-.5 2.5-1 2.7-1.8 3.4-5.4 1.6-8-1.5-2.3-4.5-3.2-7-2.2-1.1.4-2 1.3-2.5 2.3-.3.7-.1.7-.6 1.8-.1.4-.3.7-.5 1-.5 1.2-.9 1.6-.8 1.9z"/><path d="M308.1 234.8c-1 1.8-1.1 4-.2 5.9l-3 2-4.1 3 1.7-4.5c0-1.2-.1-2.3-.4-3.5l6-2.9z"/></g><g fill="#e4b69d"><path d="M315.6 209.4c-.9-.7-1.4-1.7-1.5-2.8.1-.7.4-1.4.8-2 .5-.8 1-1.5 1.7-2.1l-1.4-2.6a.47.47 0 0 1 .1-.6c.2-.2.5-.2.8 0 0 0 .1 0 .1.1l1.7 2.3c.1.2.2.4.2.6l-.6 6.6-1.9.5z"/><path d="M316 200.6l-1-1.1c-.2-.2-.5-.3-.7-.1-.3.1-.4.5-.2.8l1.6 3.2-.5 2.3 1.5-.7.4-2.3-1.1-2.1z"/><path d="M313 200c-.2.2-.3.5-.1.7l1.4 1.7.9 2.9 1-.5-.8-3.1-1.6-1.8c-.3 0-.6 0-.8.1z"/><path d="M312.3 202.1c-.1.2-.1.4.1.5l1.5 1.1.9 1.5.8-.5-1.1-2-1.6-.8c-.3-.1-.5 0-.6.2zm4.4 4.2c.2 0 .8 1.1.9 1l1.8-4.1c.2-.3.1-.6-.1-.8s-.6-.1-.8.1l-2.3 2.9a.53.53 0 0 0 .1.8c.1.1.3.1.4.1z"/></g><path d="M301.8 231.8c.6.7.9.4 1.5 1 1.2 1.3 0 3.1 1.1 4.3.5.6 1.1.2 1.5.8.6.9-.4 1.8 0 3.3.3 1.1 1.2 2 2.3 2.4 1.3.4 1.8-.6 2.8-.2 1.4.5.8 2.7 2.1 4.1 1.8 1.8 5.9 1.9 8.6-.3s2.8-5.8 2.2-8c-.6-2.1-2-4-3.9-5.1-1.8-1.1-2.9-.7-4.7-2.1-.8-.7-.9-.7-2.3-2.8-.9-1.6-2.2-2.9-3.7-3.9-1.6-.8-3.5-1.1-5.2-.8-1.2.2-3.3.5-4.1 2-.3.6-.4 1.4-.1 2 .1.3.3.3.5.6.9.9.6 1.7 1.4 2.7z" class="AK"/><path d="M308.1 245.8l4-17.4 2.4-20.3 3.1.1c.8 13.6-.1 27.3-2.6 40.7l-6.9-3.1z" class="AH"/><linearGradient id="V" gradientUnits="userSpaceOnUse" x1="514.713" y1="422.176" x2="520.526" y2="422.176"><stop offset="0" stop-color="#f4f5f7"/><stop offset="1" stop-color="#c1c7d0"/></linearGradient><path d="M514.7 418.8h5.8v6.7h-5.8z" fill="url(#V)"/><path d="M482.9 378.2c1.9-.9 5.6 1.5 7.4 4 1.3 1.5 2 3.3 2.2 5.3 0 1.7-.7 3.4.3 4.9.3.3.6.7.7 1.1.3 1 .1 2.2-.6 3-.3.4-1 1-4.6 1.3-.2 0-.4 0-.7.1-2.4.2-4.5-1.5-5-3.8-2.3-11.9-1.2-15.2.3-15.9z" fill="#091e42"/><path d="M477.3 392.1l-1.4 5.3 3.6 6.3 8.2-.7-.1-5.1c-.7 0-1.4 0-2-.3-.4-.1-.7-.3-.9-.6s-.3-.7-.3-1.1a16.28 16.28 0 0 1 .3-3.1l-7.4-.7z" class="AF"/><path d="M454.8 439.3l3.9.4c1.2.2 1.8.5 1.8.8.1.6-1.1 1.4-3.6 2.4-.5.6-1.3.9-2.1.8-.2 0-.4-.1-.6-.2l1.7-1.4c0-.1 0-.2-.1-.3-.5-.5-2.8.1-4.4 1.2-.3.2-.9.7-1.5.5-.1 0-.2-.1-.3-.2l1.4-1.3c-.2.1-.5.2-1 .4-.6.3-.9.3-1.1.2-.1-.1-.2-.1-.3-.3l2.6-1.9c.2-.2.4-.4.7-.5.3-.2.7-.3 1.1-.4.6-.1 1.2-.2 1.8-.2z" fill="#d4b696"/><path d="M490.8 413.3l4.8 4.2c1.1 1 2.5 1.6 4 1.8l11 1.2v3.2l-12.9.1c-1.5 0-3-.5-4.2-1.3l-5.1-3.6 2.4-5.6" class="AF"/><path d="M487.8 413.5c.2 1.3.6 2.6 1.4 3.7.5.8 1.3 1.4 2.1 1.9l2.5-3.2c-.9-1.8-1.4-3.8-1.5-5.8-.1-1.4.1-1.6 0-3.6-.1-2.5-.2-4.6-1.6-6.4-.8-1-1.8-1.7-3-2.2l.1 15.6z" class="AC"/><path d="M541.3 460l-1.7-.9c-.9.3-2.5 1-6.8-1.1-1.6-.8-3-2-4.1-3.5l-6.6 1.9 2.4 8.3 2.8-.8c-.2-1.2.6-2.3 1.7-2.5.9-.2 1.9.3 2.3 1.1 4.2-1 5.8-1.3 10-2.5zm-27.5 20.3l-.6-1.8c-.9-.4-2.5-.9-4.3-5.4-.7-1.7-.9-3.5-.7-5.3l-6.2-3-3.8 7.8 2.6 1.3c.6-1 2-1.3 3-.7.8.5 1.2 1.5.9 2.4l9.1 4.7z" fill="#172b4d"/><path d="M528.7 454.6l-6.6 1.9c-3.2-4.1-5.9-8.7-8-13.5-.1-.2-.2-.5-.3-.7l.4-1.7a4.69 4.69 0 0 0-.7-4.3c-.6-.7-1.3-1.2-2.2-1.5l-16.8 6.3c-1.1.5-2.1.8-3.3 1.1-5.5 1.3-10.6-.1-13.2-3.4-1.3-1.8-2-4-1.9-6.3 4.3-1.7 8.8-3.1 13.3-4.2 7.2-1.9 14.5-3 21.9-3.3 3.3-.4 6.7 1.3 7.9 4.3l9.5 25.3z" class="AG"/><linearGradient id="W" gradientUnits="userSpaceOnUse" x1="491.184" y1="451.309" x2="514.427" y2="451.309"><stop offset="0" stop-color="#4c9aff"/><stop offset="1" stop-color="#0065ff"/></linearGradient><path d="M514.2 440.6l-.4 1.7-5.7 25.5-6.2-3c-1.4-7.7-.5-15.7 2.6-22.9l-13.4.3c1.1-.3 2.2-.6 3.3-1.1l16.8-6.3c.9.3 1.6.8 2.2 1.5 1 1.2 1.3 2.8.8 4.3z" fill="url(#W)"/><path d="M469.1 409.6c.5 6.7 3.5 10.5 3.6 28.6 6.2-.2 10.8-3.4 18-9 .7-.5 1.3-1.1 1.9-1.6l2.2-.5c-1.3-1.9-2.3-4-2.9-6.2a13.75 13.75 0 0 1-.6-4.9c.2-3.4 1.7-3.7 1.6-6.4 0-.6.1-1.6-2.5-6.6l-2.8-4.9c-.7-.2-1.5-.3-2.2-.5.9 3 1 4.7.2 5.3-1.2.9-4.4-1-9.5-5.7-2.8.5-5.3 1.9-7.1 4.1-3.7 4.6 2.4 6.2.1 8.3z" class="AE"/><path d="M476.1 405.8l-7.7 10-8 25.1c-.9-.2-1.8-.6-2.5-1.2-.2-4.4.1-8.8.7-13.2.7-5 2-10 3.8-14.7 3.1-8.1 6.3-9.8 7.8-11.3 1.2-1.2 3-1.5 4.5-.7a4.01 4.01 0 0 1 1.8 5.4c-.1.2-.2.4-.4.6zm10.5-25.5c.8 1.9 1.3 4 1.5 6.1 0 .3 0 .4.4.8s1 .7.7 1-1.1.5-1.3.8l-1 5-2.2.1-7.4.3c.2-.2 4.7-5.9 4.9-6.3s.3-1.2.8-1.2 2.5-3.6 2.8-4.1c.3-.4.5-.8.5-1.3l.3-1.2z" fill="#d4b696"/><path d="M486.7 379.2c-.1 2.1-.8 4.1-2.1 5.7-.7 1.1-3.3 5-2.6 9.5.3 2.2-1.2 4.2-3.4 4.6h-.6c-1.3.1-2.7-.1-3.9-.4a8.57 8.57 0 0 1-3.9-2c-2.3-2.2-2.2-5.6-2.1-7.5a13.58 13.58 0 0 1 2.6-7.5c.5-.7 1-1.3 1.6-1.9 2.3-2.3 9.7-4.8 14.4-.5z" fill="#091e42"/><path d="M475.1 399.7c-1.8-.7-3.8-.4-5.4.7-5.1 3.3-6.9 8-8.2 10.9-.7 1.6-1.3 3.3-1.8 5.1 2.4 1.4 6.6 3.5 8.9 4.5.7-2.6 1.8-5.1 3.2-7.4l4.7-7.7c1.3-1.8 1-4.3-.8-5.6-.1-.2-.3-.4-.6-.5z" class="AC"/><path d="M510.5 423.5l1.1.3c.4.1.7.1 1.1.1l1.6-.2c.1-.2.1-.4.2-.6 0-.1-.1-.2-.2-.3.1-.2.1-.4.2-.6-.1-.2-.2-.3-.3-.5.1-.2.2-.4.3-.7-.1-.1-.1-.3-.2-.4l-.3-.6-.9-.2h-.7l-1.8.4-.1 3.3z" class="AF"/><linearGradient id="X" gradientUnits="userSpaceOnUse" x1="512.156" y1="422.161" x2="514.713" y2="422.161"><stop offset="0" stop-color="#f4f5f7"/><stop offset="1" stop-color="#c1c7d0"/></linearGradient><path d="M514.7 424.3c-1.2 0-2.1-.9-2.1-2.1s.9-2.1 2.1-2.1" stroke="url(#X)" stroke-width=".908" class="y AA"/><path d="M513.6 421l-1 1.2.2.5h.3l-.1.3.3.5.3-.1-.1.3.4.3.4-.4z" class="AF"/><linearGradient id="Y" gradientUnits="userSpaceOnUse" x1="528.17" y1="418.824" x2="528.17" y2="392.675"><stop offset="0" stop-color="#f4f5f7" stop-opacity=".4"/><stop offset="1" stop-color="#fafbfc" stop-opacity="0"/></linearGradient><path d="M515.7 418.8c-.8-1.2-1-2.7-.7-4 .5-1.5 1.7-1.6 2.6-3.2 1.2-2.1-.2-3.3.6-5.4 1.2-3.3 5.3-2.7 7.4-6.1.7-1.1 1.5-3.1.9-6.5l14.5-.9c.6 2.6.5 5.3-.2 7.9-1.5 5.5-6.2 11.5-11.8 12.1-2.7.3-5.8-.6-6.7.9-.4.7.1 1.4-.3 2.7a5.07 5.07 0 0 1-2.5 2.5h-3.8z" fill="url(#Y)"/></svg>